<?xml version="1.0" encoding="UTF-8"?>
<svg width="15px" height="12px" viewBox="0 0 15 12" version="1.1" xmlns="http://www.w3.org/2000/svg" xmlns:xlink="http://www.w3.org/1999/xlink">
    <title>icon/arrow-right</title>
    <g id="design" stroke="none" stroke-width="1" fill="none" fill-rule="evenodd">
        <g id="04-LO-—-sign-in" transform="translate(-1154.000000, -927.000000)" fill="#FFFFFF">
            <g id="Fill-1" transform="translate(1154.000000, 927.000000)">
                <path d="M10.6263582,0.180381087 C10.4434863,-0.0601270289 10.1404719,-0.0601270289 9.95122072,0.180381087 C9.76888043,0.413436838 9.76888043,0.799604799 9.95122072,1.03266055 L13.3736894,5.39364855 L0.473659463,5.39364855 C0.209983713,5.39364855 0,5.66125618 0,5.99729005 C0,6.33061397 0.209983713,6.60838391 0.473659463,6.60838391 L13.3736894,6.60838391 L9.95122072,10.9592096 C9.76888043,11.2003952 9.76888043,11.5892731 9.95122072,11.8196189 C10.1404719,12.060127 10.4434863,12.060127 10.6263582,11.8196189 L14.8584603,6.42613973 C15.0471799,6.19308398 15.0471799,5.80691602 14.8584603,5.57657022 L10.6263582,0.180381087 Z"></path>
            </g>
        </g>
    </g>
</svg>