<svg viewBox="18.739035551663747 8.9861552 97.25569176882662 124.764" version="1.1" xmlns="http://www.w3.org/2000/svg" style="max-height: 500px" width="97.25569176882662" height="124.764">
<path transform="translate(0,0)" fill="#FEFEFE" d="M0 0 C105.93 0 211.86 0 321 0 C321 92.73 321 185.46 321 281 C215.07 281 109.14 281 0 281 C0 188.27 0 95.54 0 0 Z"/>
<path transform="translate(35.1875,36.9375)" fill="#0D224D" d="M0 0 C1.27230469 0.00902344 2.54460938 0.01804688 3.85546875 0.02734375 C5.31919922 0.04474609 5.31919922 0.04474609 6.8125 0.0625 C6.8125 3.3625 6.8125 6.6625 6.8125 10.0625 C2.5225 10.0625 -1.7675 10.0625 -6.1875 10.0625 C-6.1875 29.5325 -6.1875 49.0025 -6.1875 69.0625 C13.6125 69.0625 33.4125 69.0625 53.8125 69.0625 C53.8125 65.1025 53.8125 61.1425 53.8125 57.0625 C56.7825 57.0625 59.7525 57.0625 62.8125 57.0625 C62.89389142 59.45902528 62.95317009 61.85275436 63 64.25 C63.02513672 64.92353516 63.05027344 65.59707031 63.07617188 66.29101562 C63.14157182 70.76001197 62.56880065 73.51868488 59.8125 77.0625 C56.98486015 78.47631993 54.58478482 78.22115382 51.42260742 78.25537109 C50.76710403 78.26354858 50.11160065 78.27172607 49.43623352 78.28015137 C47.26348789 78.30499562 45.09080756 78.32151911 42.91796875 78.3359375 C42.17582941 78.34126118 41.43369007 78.34658485 40.66906166 78.35206985 C36.74056659 78.37879782 32.81210325 78.39817339 28.88354492 78.41259766 C24.82793293 78.42924106 20.77313429 78.47401587 16.7178297 78.5249691 C13.59767231 78.55864364 10.4777079 78.5701752 7.35738564 78.57582474 C5.86264139 78.58253724 4.36790985 78.5977596 2.87334251 78.62171555 C0.77841531 78.65337728 -1.31431968 78.65340431 -3.40942383 78.64599609 C-5.19573967 78.65812637 -5.19573967 78.65812637 -7.0181427 78.67050171 C-11.22335079 77.86378493 -12.668126 76.48836339 -15.1875 73.0625 C-15.82241821 69.95129395 -15.82241821 69.95129395 -15.83447266 66.42382812 C-15.84761505 65.45454628 -15.84761505 65.45454628 -15.86102295 64.46568298 C-15.88293442 62.34101139 -15.86849749 60.21844073 -15.8515625 58.09375 C-15.85493311 56.61071373 -15.85978777 55.12768016 -15.86605835 53.64465332 C-15.87341835 50.54099144 -15.8627537 47.43805052 -15.83935547 44.33447266 C-15.81086655 40.36281194 -15.82727544 36.39284054 -15.85721779 32.42124176 C-15.87531536 29.36016183 -15.86952184 26.29948021 -15.85657883 23.23838806 C-15.85325153 21.77440692 -15.85730817 20.31038922 -15.86897659 18.84645081 C-15.88172798 16.79705525 -15.86225748 14.75036652 -15.83447266 12.70117188 C-15.83049469 11.53710815 -15.82651672 10.37304443 -15.82241821 9.17370605 C-14.99556817 5.12200173 -13.35683922 3.63380863 -10.1875 1.0625 C-6.62704823 -0.12431726 -3.74941663 -0.03439832 0 0 Z"/>
<path transform="translate(61,19)" fill="#0B214C" d="M0 0 C17.82 0 35.64 0 54 0 C54 17.82 54 35.64 54 54 C51.03 54 48.06 54 45 54 C44.67 41.79 44.34 29.58 44 17 C29.81 31.19 15.62 45.38 1 60 C-1.31 58.02 -3.62 56.04 -6 54 C-1.37508621 48.44560076 3.55360964 43.31474331 8.6796875 38.22265625 C9.49245148 37.41130722 10.30521545 36.59995819 11.14260864 35.76402283 C13.71771738 33.1944741 16.2962962 30.62844032 18.875 28.0625 C20.63043946 26.31208071 22.38565017 24.561432 24.140625 22.81054688 C28.42402146 18.53727187 32.71210081 14.26877575 37 10 C18.685 9.505 18.685 9.505 0 9 C0 6.03 0 3.06 0 0 Z"/>
</svg>