<?xml version="1.0" encoding="UTF-8"?>
<svg width="29px" height="23px" viewBox="0 0 29 23" version="1.1" xmlns="http://www.w3.org/2000/svg" xmlns:xlink="http://www.w3.org/1999/xlink">
    <title>map-directions</title>
    <defs>
        <polygon id="path-1" points="0 0 28 0 28 23 0 23"></polygon>
    </defs>
    <g id="Page-1" stroke="none" stroke-width="1" fill="none" fill-rule="evenodd">
        <g id="UI-Icons" transform="translate(-362.000000, -302.000000)">
            <g id="Right-Column" transform="translate(349.000000, 34.000000)">
                <g id="Group" transform="translate(13.173413, 268.000000)">
                    <mask id="mask-2" fill="white">
                        <use xlink:href="#path-1"></use>
                    </mask>
                    <g id="Clip-2"></g>
                    <path d="M23.6454588,15.7285279 C22.7890269,15.7285279 22.0959951,15.0359939 22.0959951,14.1830638 C22.0959951,13.3282466 22.7890269,12.6362518 23.6454588,12.6362518 C24.5008102,12.6362518 25.1946524,13.3282466 25.1946524,14.1830638 C25.1946524,15.0359939 24.5008102,15.7285279 23.6454588,15.7285279 M18.474728,14.7550985 L9.52446176,14.7550985 C9.14445559,14.7550985 8.8360213,14.4472457 8.8360213,14.0679559 C8.8360213,13.6886662 9.14445559,13.3808134 9.52446176,13.3808134 L18.474728,13.3808134 C18.8555444,13.3808134 19.1637086,13.6886662 19.1637086,14.0679559 C19.1637086,14.4472457 18.8555444,14.7550985 18.474728,14.7550985 M4.35454125,15.7285279 C3.4983795,15.7285279 2.80534763,15.0359939 2.80534763,14.1830638 C2.80534763,13.3282466 3.4983795,12.6362518 4.35454125,12.6362518 C5.21097307,12.6362518 5.90346477,13.3282466 5.90346477,14.1830638 C5.90346477,15.0359939 5.21097307,15.7285279 4.35454125,15.7285279 M4.58654217,4.10506329 C4.75507369,3.11815518 5.51238521,2.37116737 6.11466934,2.29326067 C8.43440852,1.99187764 11.160892,1.83282935 14,1.83282935 C16.8399182,1.83282935 19.5664017,1.99187764 21.8853307,2.29326067 C22.4859943,2.3708978 23.2203488,2.97096812 23.4145382,4.10560244 C23.5625434,4.97335912 23.8102091,6.38915846 24.0022378,7.48416549 L3.99830234,7.48416549 C4.19060113,6.38915846 4.43799676,4.97335912 4.58654217,4.10506329 M25.9479126,7.94783169 C25.7558839,6.85794655 25.4112586,4.89140881 25.2240914,3.79694093 C24.9183579,2.01101735 23.6721969,0.676359587 22.1216529,0.475797 C19.7262906,0.16470933 16.917702,0 14,0 C11.0831083,0 8.27478972,0.16470933 5.87834709,0.475797 C4.40045528,0.667463666 3.06732773,2.09539381 2.77617872,3.7972105 C2.58955166,4.89140881 2.24438614,6.85794655 2.0528976,7.94756212 C0.830503897,8.60451242 0,9.89280356 0,11.3754571 L0,15.6317511 C0,16.7644984 0.488039201,17.7810595 1.26182576,18.4924637 L1.26182576,22.0834505 C1.26182576,22.5875527 1.674782,23 2.17983641,23 L4.81935335,23 C5.32440775,23 5.73736399,22.5875527 5.73736399,22.0834505 L5.73736399,20.6010666 L22.262636,20.6010666 L22.262636,22.0834505 C22.262636,22.5875527 22.674782,23 23.1806467,23 L25.8201636,23 C26.3244077,23 26.737364,22.5875527 26.737364,22.0834505 L26.737364,18.4927332 C27.5119608,17.7815987 28,16.7650375 28,15.6317511 L28,11.3754571 C28,9.89307314 27.1694961,8.60451242 25.9479126,7.94783169" id="Fill-1" fill="#80379B" mask="url(#mask-2)"></path>
                </g>
            </g>
        </g>
    </g>
</svg>